{
  "accessors": [
    {
      "bufferView": 2,
      "componentType": 5126,
      "count": 46592,
      "max": [
        12.600000381469727,
        12.600000381469727,
        9.5
      ],
      "min": [
        0,
        -0,
        6.3000001907348633
      ],
      "type": "VEC3"
    },
    {
      "bufferView": 2,
      "byteOffset": 559104,
      "componentType": 5126,
      "count": 46592,
      "max": [
        1,
        1,
        1
      ],
      "min": [
        -1,
        -1,
        -1
      ],
      "type": "VEC3"
    },
    {
      "bufferView": 1,
      "componentType": 5126,
      "count": 46592,
      "max": [
        0.99414098262786865,
        0.5
      ],
      "min": [
        0.0019531298894435167,
        0.5
      ],
      "type": "VEC2"
    },
    {
      "bufferView": 0,
      "componentType": 5125,
      "count": 87042,
      "max": [
        46591
      ],
      "min": [
        0
      ],
      "type": "SCALAR"
    }
  ],
  "asset": {
    "extras": {
      "author": "Eryk_Szymanowski (https://sketchfab.com/Eryk_Szymanowski)",
      "license": "CC-BY-4.0 (http://creativecommons.org/licenses/by/4.0/)",
      "source": "https://sketchfab.com/3d-models/santaigo-bernabeu-e6812a94a8f0432db926c384847dabda",
      "title": "Santaigo Bernabeu"
    },
    "generator": "Sketchfab-8.42.0",
    "version": "2.0"
  },
  "bufferViews": [
    {
      "buffer": 0,
      "byteLength": 348168,
      "byteOffset": 0,
      "name": "floatBufferViews",
      "target": 34963
    },
    {
      "buffer": 0,
      "byteLength": 372736,
      "byteOffset": 348168,
      "byteStride": 8,
      "name": "floatBufferViews",
      "target": 34962
    },
    {
      "buffer": 0,
      "byteLength": 1118208,
      "byteOffset": 720904,
      "byteStride": 12,
      "name": "floatBufferViews",
      "target": 34962
    }
  ],
  "buffers": [
    {
      "byteLength": 1839112,
      "uri": "scene.bin"
    }
  ],
  "images": [
    {
      "uri": "textures/palette_baseColor.png"
    },
    {
      "uri": "textures/palette_emissive.png"
    }
  ],
  "materials": [
    {
      "alphaMode": "BLEND",
      "doubleSided": true,
      "emissiveFactor": [
        1,
        1,
        1
      ],
      "emissiveTexture": {
        "index": 1,
        "texCoord": 0
      },
      "name": "palette",
      "pbrMetallicRoughness": {
        "baseColorFactor": [
          1,
          1,
          1,
          1
        ],
        "baseColorTexture": {
          "index": 0,
          "texCoord": 0
        },
        "metallicFactor": 0.25354855669827675,
        "roughnessFactor": 1
      }
    }
  ],
  "meshes": [
    {
      "primitives": [
        {
          "attributes": {
            "NORMAL": 1,
            "POSITION": 0,
            "TEXCOORD_0": 2
          },
          "indices": 3,
          "material": 0,
          "mode": 4
        }
      ]
    }
  ],
  "nodes": [
    {
      "children": [
        1
      ],
      "name": "RootNode (gltf orientation matrix)",
      "rotation": [
        -0.70710678118654746,
        -0,
        -0,
        0.70710678118654757
      ]
    },
    {
      "children": [
        2
      ],
      "name": "RootNode (model correction matrix)"
    },
    {
      "children": [
        3
      ],
      "name": "Santaigo bernabeu.obj.cleaner.materialmerger.gles"
    },
    {
      "mesh": 0,
      "name": ""
    }
  ],
  "samplers": [
    {
      "magFilter": 9729,
      "minFilter": 9987,
      "wrapS": 10497,
      "wrapT": 33648
    },
    {
      "magFilter": 9729,
      "minFilter": 9987,
      "wrapS": 33648,
      "wrapT": 10497
    }
  ],
  "scene": 0,
  "scenes": [
    {
      "name": "OSG_Scene",
      "nodes": [
        0
      ]
    }
  ],
  "textures": [
    {
      "sampler": 0,
      "source": 0
    },
    {
      "sampler": 1,
      "source": 1
    }
  ]
}

